<mxfile host="Electron" agent="Mozilla/5.0 (Macintosh; Intel Mac OS X 10_15_7) AppleWebKit/537.36 (KHTML, like Gecko) draw.io/24.7.8 Chrome/128.0.6613.36 Electron/32.0.1 Safari/537.36" version="24.7.8">
  <diagram name="Page-1" id="uiomI9Z5B9JM8DQVTBtG">
    <mxGraphModel dx="2399" dy="1616" grid="1" gridSize="10" guides="1" tooltips="1" connect="1" arrows="1" fold="1" page="1" pageScale="1" pageWidth="1169" pageHeight="827" math="0" shadow="0">
      <root>
        <mxCell id="0" />
        <mxCell id="1" parent="0" />
        <mxCell id="p4Km1uOlbHShos8wbAyE-10" value="4. Publish:&lt;div&gt;New Index Order&lt;/div&gt;" style="edgeStyle=orthogonalEdgeStyle;rounded=0;orthogonalLoop=1;jettySize=auto;html=1;align=left;" edge="1" parent="1" source="p4Km1uOlbHShos8wbAyE-1" target="p4Km1uOlbHShos8wbAyE-3">
          <mxGeometry x="-0.6667" y="20" relative="1" as="geometry">
            <mxPoint as="offset" />
          </mxGeometry>
        </mxCell>
        <mxCell id="p4Km1uOlbHShos8wbAyE-14" value="3. Store Index Order" style="edgeStyle=orthogonalEdgeStyle;rounded=0;orthogonalLoop=1;jettySize=auto;html=1;align=left;" edge="1" parent="1" source="p4Km1uOlbHShos8wbAyE-1" target="p4Km1uOlbHShos8wbAyE-13">
          <mxGeometry relative="1" as="geometry">
            <mxPoint as="offset" />
          </mxGeometry>
        </mxCell>
        <mxCell id="p4Km1uOlbHShos8wbAyE-1" value="Index Order&lt;div&gt;Manager&lt;/div&gt;" style="rounded=0;whiteSpace=wrap;html=1;fillColor=#dae8fc;strokeColor=#6c8ebf;" vertex="1" parent="1">
          <mxGeometry x="320" y="240" width="120" height="60" as="geometry" />
        </mxCell>
        <mxCell id="p4Km1uOlbHShos8wbAyE-7" value="1. New Index Order" style="edgeStyle=orthogonalEdgeStyle;rounded=0;orthogonalLoop=1;jettySize=auto;html=1;" edge="1" parent="1" source="p4Km1uOlbHShos8wbAyE-2" target="p4Km1uOlbHShos8wbAyE-8">
          <mxGeometry y="20" relative="1" as="geometry">
            <mxPoint as="offset" />
          </mxGeometry>
        </mxCell>
        <mxCell id="p4Km1uOlbHShos8wbAyE-2" value="User" style="shape=umlActor;verticalLabelPosition=bottom;verticalAlign=top;html=1;outlineConnect=0;" vertex="1" parent="1">
          <mxGeometry x="-70" y="240" width="30" height="60" as="geometry" />
        </mxCell>
        <mxCell id="p4Km1uOlbHShos8wbAyE-12" value="5. Compute Collateral&lt;div&gt;Management&lt;/div&gt;&lt;div&gt;Requirements&lt;/div&gt;" style="edgeStyle=orthogonalEdgeStyle;rounded=0;orthogonalLoop=1;jettySize=auto;html=1;align=left;" edge="1" parent="1" source="p4Km1uOlbHShos8wbAyE-3" target="p4Km1uOlbHShos8wbAyE-11">
          <mxGeometry x="-0.75" y="20" relative="1" as="geometry">
            <mxPoint as="offset" />
          </mxGeometry>
        </mxCell>
        <mxCell id="p4Km1uOlbHShos8wbAyE-15" value="7. Request Collateral&lt;div&gt;Managerment&lt;/div&gt;" style="edgeStyle=orthogonalEdgeStyle;rounded=0;orthogonalLoop=1;jettySize=auto;html=1;align=left;" edge="1" parent="1" source="p4Km1uOlbHShos8wbAyE-3" target="p4Km1uOlbHShos8wbAyE-4">
          <mxGeometry relative="1" as="geometry" />
        </mxCell>
        <mxCell id="p4Km1uOlbHShos8wbAyE-3" value="Solver" style="rounded=0;whiteSpace=wrap;html=1;fillColor=#dae8fc;strokeColor=#6c8ebf;" vertex="1" parent="1">
          <mxGeometry x="560" y="240" width="120" height="60" as="geometry" />
        </mxCell>
        <mxCell id="p4Km1uOlbHShos8wbAyE-17" value="8. Store Collateral&lt;div&gt;Record&lt;/div&gt;" style="edgeStyle=orthogonalEdgeStyle;rounded=0;orthogonalLoop=1;jettySize=auto;html=1;align=left;" edge="1" parent="1" source="p4Km1uOlbHShos8wbAyE-4" target="p4Km1uOlbHShos8wbAyE-16">
          <mxGeometry x="0.8333" y="-20" relative="1" as="geometry">
            <mxPoint as="offset" />
          </mxGeometry>
        </mxCell>
        <mxCell id="p4Km1uOlbHShos8wbAyE-18" value="9. Request Collateral&lt;div&gt;Routing&lt;/div&gt;" style="edgeStyle=orthogonalEdgeStyle;rounded=0;orthogonalLoop=1;jettySize=auto;html=1;align=left;" edge="1" parent="1" source="p4Km1uOlbHShos8wbAyE-4" target="p4Km1uOlbHShos8wbAyE-5">
          <mxGeometry relative="1" as="geometry" />
        </mxCell>
        <mxCell id="p4Km1uOlbHShos8wbAyE-4" value="Collatetral&lt;div&gt;Manager&lt;/div&gt;" style="rounded=0;whiteSpace=wrap;html=1;fillColor=#dae8fc;strokeColor=#6c8ebf;" vertex="1" parent="1">
          <mxGeometry x="560" y="100" width="120" height="60" as="geometry" />
        </mxCell>
        <mxCell id="p4Km1uOlbHShos8wbAyE-20" value="10. Read Routing&lt;div&gt;Table&lt;/div&gt;" style="edgeStyle=orthogonalEdgeStyle;rounded=0;orthogonalLoop=1;jettySize=auto;html=1;align=left;" edge="1" parent="1" source="p4Km1uOlbHShos8wbAyE-5" target="p4Km1uOlbHShos8wbAyE-19">
          <mxGeometry x="0.6667" y="-20" relative="1" as="geometry">
            <mxPoint as="offset" />
          </mxGeometry>
        </mxCell>
        <mxCell id="p4Km1uOlbHShos8wbAyE-23" value="11. Request Collateral&lt;div&gt;Transfer&lt;/div&gt;" style="edgeStyle=orthogonalEdgeStyle;rounded=0;orthogonalLoop=1;jettySize=auto;html=1;align=left;" edge="1" parent="1" source="p4Km1uOlbHShos8wbAyE-5" target="p4Km1uOlbHShos8wbAyE-6">
          <mxGeometry relative="1" as="geometry" />
        </mxCell>
        <mxCell id="p4Km1uOlbHShos8wbAyE-5" value="Collateral&lt;div&gt;Router&lt;/div&gt;" style="rounded=0;whiteSpace=wrap;html=1;fillColor=#dae8fc;strokeColor=#6c8ebf;" vertex="1" parent="1">
          <mxGeometry x="560" y="-40" width="120" height="60" as="geometry" />
        </mxCell>
        <mxCell id="p4Km1uOlbHShos8wbAyE-25" value="12. Move Collateral" style="edgeStyle=orthogonalEdgeStyle;rounded=0;orthogonalLoop=1;jettySize=auto;html=1;" edge="1" parent="1" source="p4Km1uOlbHShos8wbAyE-6" target="p4Km1uOlbHShos8wbAyE-24">
          <mxGeometry y="-20" relative="1" as="geometry">
            <mxPoint as="offset" />
          </mxGeometry>
        </mxCell>
        <mxCell id="p4Km1uOlbHShos8wbAyE-6" value="Collateral&lt;div&gt;Bridge&lt;/div&gt;" style="rounded=0;whiteSpace=wrap;html=1;fillColor=#dae8fc;strokeColor=#6c8ebf;" vertex="1" parent="1">
          <mxGeometry x="560" y="-180" width="120" height="60" as="geometry" />
        </mxCell>
        <mxCell id="p4Km1uOlbHShos8wbAyE-9" value="2. New Index Order" style="edgeStyle=orthogonalEdgeStyle;rounded=0;orthogonalLoop=1;jettySize=auto;html=1;" edge="1" parent="1" source="p4Km1uOlbHShos8wbAyE-8" target="p4Km1uOlbHShos8wbAyE-1">
          <mxGeometry y="20" relative="1" as="geometry">
            <mxPoint as="offset" />
          </mxGeometry>
        </mxCell>
        <mxCell id="p4Km1uOlbHShos8wbAyE-8" value="FIX JSON" style="rounded=0;whiteSpace=wrap;html=1;fillColor=#e1d5e7;strokeColor=#9673a6;" vertex="1" parent="1">
          <mxGeometry x="80" y="240" width="120" height="60" as="geometry" />
        </mxCell>
        <mxCell id="p4Km1uOlbHShos8wbAyE-22" value="6. Read Prices" style="edgeStyle=orthogonalEdgeStyle;rounded=0;orthogonalLoop=1;jettySize=auto;html=1;align=left;" edge="1" parent="1" source="p4Km1uOlbHShos8wbAyE-11" target="p4Km1uOlbHShos8wbAyE-21">
          <mxGeometry relative="1" as="geometry" />
        </mxCell>
        <mxCell id="p4Km1uOlbHShos8wbAyE-11" value="Solver&lt;br&gt;Strategy" style="rounded=0;whiteSpace=wrap;html=1;fillColor=#dae8fc;strokeColor=#6c8ebf;" vertex="1" parent="1">
          <mxGeometry x="840" y="240" width="120" height="60" as="geometry" />
        </mxCell>
        <mxCell id="p4Km1uOlbHShos8wbAyE-13" value="Index Order&lt;div&gt;Records&lt;/div&gt;" style="rounded=0;whiteSpace=wrap;html=1;fillColor=#fff2cc;strokeColor=#d6b656;" vertex="1" parent="1">
          <mxGeometry x="320" y="390" width="120" height="60" as="geometry" />
        </mxCell>
        <mxCell id="p4Km1uOlbHShos8wbAyE-16" value="Collateral&lt;div&gt;Records&lt;/div&gt;" style="rounded=0;whiteSpace=wrap;html=1;fillColor=#fff2cc;strokeColor=#d6b656;" vertex="1" parent="1">
          <mxGeometry x="320" y="100" width="120" height="60" as="geometry" />
        </mxCell>
        <mxCell id="p4Km1uOlbHShos8wbAyE-19" value="Collateral&lt;div&gt;Router&lt;/div&gt;" style="rounded=0;whiteSpace=wrap;html=1;fillColor=#fff2cc;strokeColor=#d6b656;" vertex="1" parent="1">
          <mxGeometry x="320" y="-40" width="120" height="60" as="geometry" />
        </mxCell>
        <mxCell id="p4Km1uOlbHShos8wbAyE-21" value="Prices&lt;div&gt;Tracker&lt;/div&gt;" style="rounded=0;whiteSpace=wrap;html=1;fillColor=#dae8fc;strokeColor=#6c8ebf;" vertex="1" parent="1">
          <mxGeometry x="840" y="384" width="120" height="60" as="geometry" />
        </mxCell>
        <mxCell id="p4Km1uOlbHShos8wbAyE-24" value="Target Network" style="rounded=0;whiteSpace=wrap;html=1;fillColor=#fff2cc;strokeColor=#d6b656;" vertex="1" parent="1">
          <mxGeometry x="320" y="-180" width="120" height="60" as="geometry" />
        </mxCell>
        <mxCell id="p4Km1uOlbHShos8wbAyE-26" value="&lt;font style=&quot;font-size: 36px;&quot;&gt;Phase 1. Collateral Routing&lt;/font&gt;" style="text;html=1;align=center;verticalAlign=middle;resizable=0;points=[];autosize=1;strokeColor=none;fillColor=none;" vertex="1" parent="1">
          <mxGeometry x="280" y="-330" width="460" height="60" as="geometry" />
        </mxCell>
        <mxCell id="p4Km1uOlbHShos8wbAyE-28" style="edgeStyle=orthogonalEdgeStyle;rounded=0;orthogonalLoop=1;jettySize=auto;html=1;" edge="1" parent="1" source="p4Km1uOlbHShos8wbAyE-27" target="p4Km1uOlbHShos8wbAyE-21">
          <mxGeometry relative="1" as="geometry" />
        </mxCell>
        <mxCell id="p4Km1uOlbHShos8wbAyE-27" value="Market&lt;div&gt;Data Feed&lt;/div&gt;" style="rounded=0;whiteSpace=wrap;html=1;fillColor=#e1d5e7;strokeColor=#9673a6;" vertex="1" parent="1">
          <mxGeometry x="840" y="520" width="120" height="60" as="geometry" />
        </mxCell>
      </root>
    </mxGraphModel>
  </diagram>
</mxfile>
